# xmcd
#
# Track frame offsets:
#	150
#	14695
#	33908
#	56198
#	72135
#	90550
#	115715
#	134855
#	154055
#	174688
#	191953
#	212303
#	230668
#	252510
#	271465
#
# Disc length: 3778 seconds
#
# Revision: 1
# Processed by: cddbd v1.5PL3 Copyright (c) Steve Scherf et al.
# Submitted via: audiograbber 1.83.01
#
DISCID=e00ec00f
DTITLE=Destiny's Child - Writings On The Wall
DYEAR=1900
DGENRE=
TTITLE0=So Good
TTITLE1=Bills, Bills, Bills
TTITLE2=Confessions f/Missy Elliot
TTITLE3=Bug A Boo
TTITLE4=Temptation
TTITLE5=Now That She's Gone
TTITLE6=Where'd You Go
TTITLE7=Hey Ladies
TTITLE8=If You Leave
TTITLE9=Jumpin Jumpin
TTITLE10=Say My Name
TTITLE11=She Can't Love You
TTITLE12=Stay
TTITLE13=Sweet Sixteen
TTITLE14=Outro -   Amazing Grace Dedicated to Andretta Tillman
EXTD=
EXTT0=
EXTT1=
EXTT2=
EXTT3=
EXTT4=
EXTT5=
EXTT6=
EXTT7=
EXTT8=
EXTT9=
EXTT10=
EXTT11=
EXTT12=
EXTT13=
EXTT14=
PLAYORDER=
